{"title":"Lone Survivor 2013 DVDRip Xvid AC3 LKRG","uid":10201062,"size":1213075310,"categoryP":"video","categoryS":"movies","magnet":"?xt=urn:btih:afd0f56b8b327963dfeb32018a07bfbeabfae378&amp;dn=Lone+Survivor+2013+DVDRip+Xvid+AC3+LKRG&amp;tr=udp%3A%2F%2Ftracker.openbittorrent.com%3A80&amp;tr=udp%3A%2F%2Fopen.demonii.com%3A1337&amp;tr=udp%3A%2F%2Ftracker.coppersurfer.tk%3A6969&amp;tr=udp%3A%2F%2Fexodus.desync.com%3A6969","seeders":0,"leechers":0,"uploader":".BONE.","files":2,"time":1400776234,"description":"PLOT\n\nMarcus Luttrell and his team set out on a mission to capture or kill notorious Taliban leader Ahmad Shah, in late June 2005. Marcus and\nhis team are left to fight for their lives in one of the most valiant efforts of modern warfare.\n\n\nRuntime ..........: 2h 1mn\nFile Size ........: 1.13 GB\nResolution .......: 704 x 304 &lt;a href=&quot;\nhttp://www.imdb.com/title/tt1091191/&quot; rel=&quot;nofollow&quot; target=&quot;_NEW&quot;&gt;\nhttp://www.imdb.com/title/tt1091191/&lt;/a&gt;\nGenre ............: Action,Biography,Drama\nLanguage .........: English\nSubtitles ........: None\nComplete name : Lone Survivor 2013 DVDRip Xvid AC3 LKRGLS_LKRG.avi\nFormat : AVI\nFormat/Info : Audio Video Interleave\nFile size : 1.13 GiB\nDuration : 2h 1mn\nOverall bit rate : 1 334 Kbps\nWriting application : VirtualDubMod 1.5.10.2 (build 2540/release)\nWriting library : VirtualDubMod build 2540/release\nVideo\nID : 0\nFormat : MPEG-4 Visual\nFormat profile : Advanced Simple@L5\nFormat settings, BVOP : 2\nFormat settings, QPel : No\nFormat settings, GMC : No warppoints\nFormat settings, Matrix : Default (H.263)\nMuxing mode : Packed bitstream\nCodec ID : XVID\nCodec ID/Hint : XviD\nDuration : 2h 1mn\nBit rate : 878 Kbps\nWidth : 704 pixels\nHeight : 304 pixels\nDisplay aspect ratio : 2.40:1\nFrame rate : 24.000 fps\nColor space : YUV\nChroma subsampling : 4:2:0\nBit depth : 8 bits\nScan type : Progressive\nCompression mode : Lossy\nBits/(Pixel*Frame) : 0.171\nStream size : 761 MiB (66%)\nWriting library : XviD 1.2.1 (UTC 2008-12-04)\nAudio\nID : 1\nFormat : AC-3\nFormat/Info : Audio Coding 3\nMode extension : CM (complete main)\nFormat settings, Endianness : Big\nCodec ID : 2000\nDuration : 2h 0mn\nBit rate mode : Constant\nBit rate : 448 Kbps\nChannel(s) : 6 channels\nChannel positions : Front: L C R, Side: L R, LFE\nSampling rate : 48.0 KHz\nBit depth : 16 bits\nCompression mode : Lossy\nStream size : 387 MiB (33%)\nAlignment : Split accross interleaves\nInterleave, duration : 42 ms (1.00 video frame)\nInterleave, preload duration : 500 ms","torrent":{"xt":"urn:btih:afd0f56b8b327963dfeb32018a07bfbeabfae378","amp;dn":"Lone+Survivor+2013+DVDRip+Xvid+AC3+LKRG","amp;tr":["udp%3A%2F%2Ftracker.openbittorrent.com%3A80","udp%3A%2F%2Fopen.demonii.com%3A1337","udp%3A%2F%2Ftracker.coppersurfer.tk%3A6969","udp%3A%2F%2Fexodus.desync.com%3A6969"],"infoHash":"afd0f56b8b327963dfeb32018a07bfbeabfae378","infoHashBuffer":{"type":"Buffer","data":[175,208,245,107,139,50,121,99,223,235,50,1,138,7,191,190,171,250,227,120]},"announce":[],"urlList":[]}}